<svg xmlns="http://www.w3.org/2000/svg" viewBox="0 0 347 238"><defs><style>.cls-1{fill:#005e89;}.cls-2{fill:#007db6;}.cls-3{fill:#001f2e;}.cls-4{fill:#003f5b;}.cls-5{fill:#99cbe2;}.cls-6{fill:#cce5f0;}.cls-7{fill:#3397c5;}.cls-8{fill:#66b1d3;}.cls-9{fill:#909090;}.cls-10{fill:silver;}.cls-11{fill:#303030;}.cls-12{fill:#606060;}.cls-13{fill:#e6e6e6;}.cls-14{fill:#f2f2f2;}.cls-15{fill:#cdcdcd;}.cls-16{fill:#d9d9d9;}.cls-17{fill:#b74601;}.cls-18{fill:#f45d01;}.cls-19{fill:#3d1700;}.cls-20{fill:#7a2f01;}.cls-21{fill:#fbbe99;}.cls-22{fill:#fddfcc;}.cls-23{fill:#f67d34;}.cls-24{fill:#f89e67;}.cls-25{fill:#b38b02;}.cls-26{fill:#eeb902;}.cls-27{fill:#311a0a;}.cls-28{fill:#775d01;}.cls-29{fill:#f8e39a;}.cls-30{fill:#fcf1cc;}.cls-31{fill:#f1c735;}.cls-32{fill:#f5d567;}.cls-33{fill:#719903;}.cls-34{fill:#97cc04;}.cls-35{fill:#263301;}.cls-36{fill:#4c6602;}.cls-37{fill:#d5eb9b;}.cls-38{fill:#eaf5cd;}.cls-39{fill:#acd636;}.cls-40{fill:#c1e068;}.cls-41{fill:#353535;}.cls-42{fill:#474647;}.cls-43{fill:#121212;}.cls-44{fill:#242324;}.cls-45{fill:#b5b5b5;}.cls-46{fill:#dadada;}.cls-47{fill:#6c6b6c;}.cls-48{fill:#919091;}</style></defs><title>Recurso 14</title><g id="Capa_2" data-name="Capa 2"><g id="Capa_1-2" data-name="Capa 1"><rect class="cls-1" x="119" y="41" width="32" height="32"/><rect class="cls-2" x="158" y="41" width="32" height="32"/><rect class="cls-3" x="40" y="41" width="32" height="32"/><rect class="cls-4" x="79" y="41" width="32" height="32"/><rect y="41" width="32" height="32"/><rect class="cls-5" x="276" y="41" width="32" height="32"/><rect class="cls-6" x="315" y="41" width="32" height="32"/><rect class="cls-7" x="197" y="41" width="32" height="32"/><rect class="cls-8" x="236" y="41" width="32" height="32"/><rect class="cls-9" x="119" width="32" height="32"/><rect class="cls-10" x="158" width="32" height="32"/><rect class="cls-11" x="40" width="32" height="32"/><rect class="cls-12" x="79" width="32" height="32"/><rect width="32" height="32"/><rect class="cls-13" x="276" width="32" height="32"/><rect class="cls-14" x="315" width="32" height="32"/><rect class="cls-15" x="197" width="32" height="32"/><rect class="cls-16" x="236" width="32" height="32"/><rect class="cls-17" x="119" y="123" width="32" height="32"/><rect class="cls-18" x="158" y="123" width="32" height="32"/><rect class="cls-19" x="40" y="123" width="32" height="32"/><rect class="cls-20" x="79" y="123" width="32" height="32"/><rect y="123" width="32" height="32"/><rect class="cls-21" x="276" y="123" width="32" height="32"/><rect class="cls-22" x="315" y="123" width="32" height="32"/><rect class="cls-23" x="197" y="123" width="32" height="32"/><rect class="cls-24" x="236" y="123" width="32" height="32"/><rect class="cls-25" x="119" y="82" width="32" height="32"/><rect class="cls-26" x="158" y="82" width="32" height="32"/><rect class="cls-27" x="40" y="82" width="32" height="32"/><rect class="cls-28" x="79" y="82" width="32" height="32"/><rect y="82" width="32" height="32"/><rect class="cls-29" x="276" y="82" width="32" height="32"/><rect class="cls-30" x="315" y="82" width="32" height="32"/><rect class="cls-31" x="197" y="82" width="32" height="32"/><rect class="cls-32" x="236" y="82" width="32" height="32"/><rect class="cls-33" x="119" y="164" width="32" height="32"/><rect class="cls-34" x="158" y="164" width="32" height="32"/><rect class="cls-35" x="40" y="164" width="32" height="32"/><rect class="cls-36" x="79" y="164" width="32" height="32"/><rect y="164" width="32" height="32"/><rect class="cls-37" x="276" y="164" width="32" height="32"/><rect class="cls-38" x="315" y="164" width="32" height="32"/><rect class="cls-39" x="197" y="164" width="32" height="32"/><rect class="cls-40" x="236" y="164" width="32" height="32"/><rect class="cls-41" x="119" y="206" width="32" height="32"/><rect class="cls-42" x="158" y="206" width="32" height="32"/><rect class="cls-43" x="40" y="206" width="32" height="32"/><rect class="cls-44" x="79" y="206" width="32" height="32"/><rect y="206" width="32" height="32"/><rect class="cls-45" x="276" y="206" width="32" height="32"/><rect class="cls-46" x="315" y="206" width="32" height="32"/><rect class="cls-47" x="197" y="206" width="32" height="32"/><rect class="cls-48" x="236" y="206" width="32" height="32"/></g></g></svg>