<svg xmlns="http://www.w3.org/2000/svg" viewBox="0 0 187.73 187.73"><defs><style>.cls-1{fill:#001f2e;}.cls-2{fill:#fff;}</style></defs><title>t8</title><g id="Capa_2" data-name="Capa 2"><g id="Capa_8" data-name="Capa 8"><path class="cls-1" d="M153.49,111.62V76h-7v14H131.4A37.63,37.63,0,0,0,123.14,70l10.7-10.7,9.86,9.86,4.92-4.92L123.43,39.05,118.51,44l9.86,9.86-10.69,10.7a37.5,37.5,0,0,0-19.81-8.28v-15h13.95v-7H76.19v7h14v15a37.58,37.58,0,0,0-20.09,8.23L59.49,53.89,69.36,44l-4.92-4.92L39.24,64.3l4.92,4.92L54,59.36,64.56,69.89a37.66,37.66,0,0,0-8.34,20h-15V76h-7v35.63h7v-14h15a37.61,37.61,0,0,0,8.31,20L53.89,128.32,44,118.45l-4.92,4.92,25.19,25.2,4.92-4.93-9.86-9.86L70,123.14a37.55,37.55,0,0,0,20.14,8.27v15.12h-14v7h35.63v-7H97.87V131.37a37.57,37.57,0,0,0,19.85-8.32l10.79,10.79-9.86,9.86,4.92,4.92,25.19-25.19-4.92-4.92L134,128.37l-10.8-10.8a37.72,37.72,0,0,0,8.22-19.9h15.13v14Z"/><path class="cls-1" d="M93.81,0C85.73,0,80.3,5.81,80.3,14.46s5.3,14.47,13.51,14.47,13.51-5.68,13.51-14.47S101.89,0,93.81,0Z"/><path class="cls-2" d="M47.27,28.31c-6.12-6.12-14.07-6.39-19.78-.68s-5.44,13.66.68,19.78c3.23,3.23,6.87,4.85,10.45,4.85A13.14,13.14,0,0,0,48,48.08C53.75,42.28,53.48,34.52,47.27,28.31Z"/><path class="cls-1" d="M160.37,27.57a12.88,12.88,0,0,0-10-4.1,15.16,15.16,0,0,0-9.8,4.78,15.22,15.22,0,0,0-4.85,9.84A13,13,0,0,0,139.92,48a13.16,13.16,0,0,0,9.33,4.17c3.57,0,7.22-1.62,10.45-4.85C165.81,41.23,166.09,33.29,160.37,27.57Z"/><path class="cls-1" d="M173.27,80.49c-8.79,0-14.47,5.31-14.47,13.51s5.68,13.51,14.47,13.51,14.46-5.43,14.46-13.51S181.92,80.49,173.27,80.49Z"/><path class="cls-1" d="M14.46,80.49C5.81,80.49,0,85.92,0,94s5.81,13.51,14.46,13.51S28.93,102.21,28.93,94,23.25,80.49,14.46,80.49Z"/><path class="cls-1" d="M48.08,139.86c-5.8-5.8-13.56-5.53-19.77.68s-6.39,14.06-.68,19.78a13.1,13.1,0,0,0,9.32,4.1,14.9,14.9,0,0,0,10.46-4.78C53.62,153.43,53.89,145.66,48.08,139.86Z"/><path class="cls-1" d="M93.81,158.8c-8.21,0-13.51,5.68-13.51,14.47s5.43,14.46,13.51,14.46,13.51-5.81,13.51-14.46S102,158.8,93.81,158.8Z"/><path class="cls-1" d="M159.56,140.59c-6.21-6.21-14-6.47-19.78-.67s-5.54,13.56.68,19.78a15.18,15.18,0,0,0,9.8,4.78l.69,0a13,13,0,0,0,9.29-4.13C166,154.66,165.68,146.71,159.56,140.59Z"/></g></g></svg>