<?xml version="1.0" encoding="utf-8"?>
<!-- Generator: Adobe Illustrator 23.0.0, SVG Export Plug-In . SVG Version: 6.00 Build 0)  -->
<svg version="1.1" id="Capa_1" xmlns="http://www.w3.org/2000/svg" xmlns:xlink="http://www.w3.org/1999/xlink" x="0px" y="0px"
	 viewBox="0 0 45 45" style="enable-background:new 0 0 45 45;" xml:space="preserve">
<style type="text/css">
	.st0{fill:#103159;enable-background:new    ;}
	.st1{fill:#FFFFFF;}
</style>
<title>tw</title>
<circle class="st0" cx="22.7" cy="22.5" r="22.5"/>
<path class="st1" d="M8.5,33.2c3.1,0.3,6.1-0.5,8.6-2.4c-2.5-0.1-4.7-1.7-5.5-4.1c0.9,0.1,1.8,0.1,2.6-0.1c-1.3-0.3-2.5-1-3.4-2.1
	c-0.9-1.1-1.3-2.4-1.3-3.7c0.8,0.4,1.7,0.7,2.6,0.7c-1.2-0.8-2.1-2.1-2.4-3.6c-0.3-1.4-0.1-3,0.6-4.2c3,3.6,7.4,5.9,12.1,6.1
	c0-0.4-0.1-0.7-0.1-1.1c-0.1-3.2,2.4-6,5.6-6.1c0.4,0,0.8,0,1.2,0.1c1.2,0.2,2.3,0.8,3.1,1.6c0.1,0.1,0.3,0.2,0.5,0.1
	c1.1-0.3,2.2-0.7,3.2-1.2l0.3-0.1c-0.2,0.7-0.5,1.3-0.9,1.8c-0.4,0.5-0.9,0.9-1.4,1.4c0.5-0.1,1.1-0.2,1.6-0.3s1-0.3,1.6-0.5
	c-0.2,0.3-0.4,0.6-0.7,0.9c-0.7,0.7-1.3,1.3-2,2c-0.1,0.1-0.2,0.3-0.2,0.4c0.1,4.8-1.8,9.5-5.4,12.8c-2.2,2.2-5.1,3.6-8.1,4.1
	c-3,0.6-6.1,0.3-9-0.8c-1-0.4-2.1-0.9-3-1.5L8.5,33.2z"/>
</svg>
