<svg xmlns="http://www.w3.org/2000/svg" viewBox="0 0 47 47"><defs><style>.cls-1{fill:none;stroke:#007db6;stroke-miterlimit:10;stroke-width:2px;}</style></defs><title>Recurso 3</title><g id="Capa_2" data-name="Capa 2"><g id="Capa_1-2" data-name="Capa 1"><path class="cls-1" d="M23.5,1A22.5,22.5,0,1,0,46,23.5,22.5,22.5,0,0,0,23.5,1ZM39.4,28h-19l4.29,4.29a2,2,0,0,1,0,2.87L21.83,38A2,2,0,0,1,19,38l-10-10h0L6.07,25.11a2,2,0,0,1,0-2.86l2.86-2.87,10-10a2,2,0,0,1,2.86,0l2.87,2.86a2,2,0,0,1,0,2.87l-4.8,4.8H39.4a2,2,0,0,1,2,2V26A2,2,0,0,1,39.4,28Z"/></g></g></svg>