<svg xmlns="http://www.w3.org/2000/svg" viewBox="0 0 234.63 55.21"><defs><style>.cls-1{fill:#103159;}.cls-2{fill:#137eff;}.cls-3{fill:#fff;}.cls-4{fill:#0f7cb3;}</style></defs><title>logo</title><g id="Capa_2" data-name="Capa 2"><g id="Capa_10" data-name="Capa 10"><path class="cls-1" d="M224.58,53.48H10.17c-.25,0-.5,0-.75,0a8.32,8.32,0,0,1-7.69-8.31V10.71c0-.46,0-.93,0-1.38a8.3,8.3,0,0,1,8.29-7.6H224.48a10.48,10.48,0,0,1,1.25.07,8.33,8.33,0,0,1,7.17,8.27V44.6a12,12,0,0,1-.09,1.8,8.32,8.32,0,0,1-8.23,7.08Z"/><path class="cls-1" d="M224.58,55.21H10.17c-.35,0-.62,0-.88,0A10,10,0,0,1,0,45.16V10.5c0-.42,0-.86,0-1.32A10,10,0,0,1,10.05,0H224.48A9.84,9.84,0,0,1,226,.1a10,10,0,0,1,6.5,3.72,10.17,10.17,0,0,1,2.17,6.24V44.6a12.82,12.82,0,0,1-.12,2.06,10,10,0,0,1-9.93,8.55ZM10.16,3.45h-.1a6.61,6.61,0,0,0-6.58,6c0,.32,0,.66,0,1V45.15a6.59,6.59,0,0,0,6.1,6.59l.62,0H224.58a6.6,6.6,0,0,0,6.52-5.62,9.68,9.68,0,0,0,.08-1.54V10.07a6.61,6.61,0,0,0-5.69-6.56,7.73,7.73,0,0,0-1-.06Z"/><path class="cls-2" d="M47.23,47.52H14.87a4.39,4.39,0,0,1-4.06-2.64,5.63,5.63,0,0,1-.34-2.29V10.75a4.32,4.32,0,0,1,4.31-4.31H46.61a5.72,5.72,0,0,1,2.28.33,4.38,4.38,0,0,1,2.66,4.07V43.2A4.37,4.37,0,0,1,47.23,47.52Z"/><path class="cls-2" d="M47.23,48.55H14.87a5.4,5.4,0,0,1-5-3.27,6.57,6.57,0,0,1-.43-2.69V10.75A5.36,5.36,0,0,1,14.78,5.4H46.61a6.64,6.64,0,0,1,2.68.41,5.41,5.41,0,0,1,3.29,5V43.21A5.37,5.37,0,0,1,47.23,48.55ZM15,7.47h-.19a3.31,3.31,0,0,0-3.29,3.29V42.59a4.71,4.71,0,0,0,.26,1.88,3.35,3.35,0,0,0,3.11,2H47.23a3.33,3.33,0,0,0,3.28-3.28V10.84a3.35,3.35,0,0,0-2-3.12,4.85,4.85,0,0,0-1.88-.25Z"/><path class="cls-3" d="M44.51,23.92v2.74H50v6a15,15,0,0,0-7.91,3.25l-4.24-4.21,3.91-3.89-1.95-1.93-10,9.92,1.95,1.93,3.91-3.88L40,38a14.66,14.66,0,0,0-3.28,7.8h-6V40.33H28v7.28H48a3.57,3.57,0,0,0,3.54-3.09V23.92Z"/><path class="cls-4" d="M48,47.87H27.69v-7.8H31v5.49h5.48A15,15,0,0,1,39.61,38l-3.89-3.86-3.91,3.88-2.32-2.3L39.85,25.47l2.32,2.3-3.91,3.89,3.89,3.86a15.16,15.16,0,0,1,7.63-3.13V26.92H44.25V23.66H51.8V44.55A3.84,3.84,0,0,1,48,47.87Zm-19.8-.52H48a3.31,3.31,0,0,0,3.28-2.85V24.18H44.77V26.4H50.3v6.45l-.24,0a14.75,14.75,0,0,0-7.77,3.19l-.18.15-4.59-4.56,3.91-3.89L39.85,26.2l-9.62,9.56,1.58,1.57,3.91-3.88L40.31,38l-.15.18a14.44,14.44,0,0,0-3.22,7.67l0,.23H30.45V40.59H28.21Z"/><path class="cls-3" d="M20.11,42.1c-3.43,0-5.73,2.14-5.73,5.32v.19H25.84a1.21,1.21,0,0,0,0-.19C25.85,44.19,23.6,42.1,20.11,42.1Z"/><path class="cls-4" d="M26,47.78H14.22v-.36c0-3.28,2.37-5.49,5.9-5.49S26,44.08,26,47.42v.36Zm-11.46-.34H25.68v0c0-3.13-2.19-5.15-5.57-5.15s-5.56,2.07-5.56,5.15Z"/><path class="cls-3" d="M25.31,21.21a5.1,5.1,0,0,0-1.63,3.93A6,6,0,0,0,25.58,29a6,6,0,0,0,3.9,1.9,5.12,5.12,0,0,0,3.94-1.64,5.12,5.12,0,0,0,1.66-3.67,5.85,5.85,0,0,0-1.93-4.11C30.73,19.07,27.58,19,25.31,21.21Z"/><path class="cls-4" d="M29.73,31.08h-.26a6.21,6.21,0,0,1-4-2,6.13,6.13,0,0,1-1.95-4,5.25,5.25,0,0,1,1.68-4.06h0c2.34-2.32,5.59-2.22,8.08.26a6,6,0,0,1,2,4.24,5.32,5.32,0,0,1-1.71,3.8A5.37,5.37,0,0,1,29.73,31.08Zm-4.3-9.75a4.9,4.9,0,0,0-1.57,3.8,5.77,5.77,0,0,0,1.84,3.75,5.88,5.88,0,0,0,3.79,1.85,5.46,5.46,0,0,0,5.41-5.14,5.66,5.66,0,0,0-1.87-4c-2.35-2.34-5.41-2.44-7.6-.27Z"/><path class="cls-3" d="M46.29,16.13c0,3.43,2.06,5.65,5.26,5.7V10.44C48.4,10.49,46.29,12.76,46.29,16.13Z"/><path class="cls-4" d="M51.72,22h-.18c-3.29-.05-5.42-2.35-5.42-5.87s2.18-5.81,5.42-5.86h.18Zm-.35-11.38c-2.94.13-4.9,2.32-4.9,5.51s1.92,5.4,4.9,5.52Z"/><path class="cls-2" d="M86,27.05Q86,34,82.54,37.8t-9.79,3.84q-6.42,0-9.85-3.81T59.46,27q0-7,3.46-10.77t9.87-3.76q6.31,0,9.76,3.82T86,27.05Zm-21.62,0q0,5.23,2.11,7.93a7.44,7.44,0,0,0,6.26,2.71A7.43,7.43,0,0,0,79,35q2.1-2.67,2.1-8c0-3.47-.69-6.11-2.08-7.9a7.36,7.36,0,0,0-6.21-2.7,7.52,7.52,0,0,0-6.29,2.7C65.09,20.94,64.38,23.58,64.38,27.05Z"/><path class="cls-2" d="M98.93,26.4H94.6V41.25H90.83V26.4H87.91V24.64l2.92-1.15V22.33a6.45,6.45,0,0,1,1.47-4.65,6.05,6.05,0,0,1,4.5-1.51,11.92,11.92,0,0,1,3.9.66l-1,2.85a8.63,8.63,0,0,0-2.66-.45,2.15,2.15,0,0,0-1.86.79,4,4,0,0,0-.59,2.38v1.15h4.33Zm11.89,0H106.5V41.25h-3.78V26.4H99.81V24.64l2.91-1.15V22.33a6.45,6.45,0,0,1,1.47-4.65,6.05,6.05,0,0,1,4.5-1.51,11.92,11.92,0,0,1,3.9.66l-1,2.85a8.63,8.63,0,0,0-2.66-.45,2.15,2.15,0,0,0-1.86.79,4,4,0,0,0-.58,2.38v1.15h4.32Zm2.8-7.54a2.07,2.07,0,0,1,.55-1.55,2.17,2.17,0,0,1,1.58-.55,2.11,2.11,0,0,1,1.54.55,2.07,2.07,0,0,1,.55,1.55,2,2,0,0,1-.55,1.51,2.08,2.08,0,0,1-1.54.56,2.13,2.13,0,0,1-1.58-.56A2,2,0,0,1,113.62,18.86Zm4,22.39h-3.76V23.55h3.76Z"/><path class="cls-2" d="M129.3,41.57a7.78,7.78,0,0,1-6.11-2.34q-2.09-2.35-2.08-6.73c0-3,.72-5.27,2.18-6.87a8.11,8.11,0,0,1,6.31-2.4,11.94,11.94,0,0,1,5.05,1l-1.14,3a11.36,11.36,0,0,0-3.94-.93q-4.59,0-4.59,6.1a7.33,7.33,0,0,0,1.14,4.47,4,4,0,0,0,3.36,1.5,9.64,9.64,0,0,0,4.75-1.25v3.28a7.54,7.54,0,0,1-2.15.85A13.07,13.07,0,0,1,129.3,41.57Z"/><path class="cls-2" d="M145.3,41.57a8.57,8.57,0,0,1-6.46-2.41,9.13,9.13,0,0,1-2.32-6.63,10.05,10.05,0,0,1,2.16-6.82,7.47,7.47,0,0,1,5.93-2.48,7.28,7.28,0,0,1,5.54,2.13,8.11,8.11,0,0,1,2,5.86v2H140.39a5.81,5.81,0,0,0,1.39,4,4.88,4.88,0,0,0,3.7,1.39,13.5,13.5,0,0,0,2.92-.3,15.34,15.34,0,0,0,2.9-1v3.06a11.23,11.23,0,0,1-2.78.93A17.21,17.21,0,0,1,145.3,41.57Zm-.69-15.49a3.77,3.77,0,0,0-2.87,1.14,5.4,5.4,0,0,0-1.29,3.31h8a4.9,4.9,0,0,0-1.06-3.32A3.62,3.62,0,0,0,144.61,26.08Z"/><path class="cls-3" d="M160.9,41.25h-3.29V15.85h-9V12.93h21.23v2.92h-9Z"/><path class="cls-3" d="M174,23.39a10.3,10.3,0,0,1,2.1.19l-.37,2.47a9.12,9.12,0,0,0-1.92-.24,4.65,4.65,0,0,0-3.64,1.73,6.27,6.27,0,0,0-1.51,4.3v9.41H166V23.71h2.19l.31,3.25h.12A7.72,7.72,0,0,1,171,24.32,5.25,5.25,0,0,1,174,23.39Z"/><path class="cls-3" d="M189.38,41.25l-.53-2.49h-.13A7.43,7.43,0,0,1,186.1,41a7.94,7.94,0,0,1-3.25.58,5.88,5.88,0,0,1-4.09-1.34,4.9,4.9,0,0,1-1.48-3.83q0-5.31,8.5-5.57l3-.09V29.65a4.41,4.41,0,0,0-.89-3,3.62,3.62,0,0,0-2.84-1,11.52,11.52,0,0,0-5,1.34l-.81-2a12.67,12.67,0,0,1,5.93-1.51,6.7,6.7,0,0,1,4.65,1.39,5.82,5.82,0,0,1,1.52,4.47v12Zm-6-1.87A5.36,5.36,0,0,0,187.27,38a5,5,0,0,0,1.42-3.81V32.63l-2.66.11a9.66,9.66,0,0,0-4.57,1,3,3,0,0,0-1.4,2.71,2.75,2.75,0,0,0,.87,2.2A3.66,3.66,0,0,0,183.38,39.38Z"/><path class="cls-3" d="M203,41.57a7.51,7.51,0,0,1-5.9-2.34A9.68,9.68,0,0,1,195,32.59a10,10,0,0,1,2.12-6.8,7.66,7.66,0,0,1,6.05-2.4,12.16,12.16,0,0,1,2.53.27,8.52,8.52,0,0,1,2,.64l-.82,2.26A11.11,11.11,0,0,0,205,26a8.23,8.23,0,0,0-1.84-.24q-5.34,0-5.34,6.82a8.1,8.1,0,0,0,1.3,5A4.53,4.53,0,0,0,203,39.25a11.75,11.75,0,0,0,4.49-.94v2.35A9.54,9.54,0,0,1,203,41.57Z"/><path class="cls-3" d="M213.41,32.27a32.27,32.27,0,0,1,2.1-2.56l5.66-6h3.16l-7.11,7.48,7.6,10.06h-3.21L215.41,33l-2,1.73v6.56h-2.62V16.35h2.62v13.2c0,.59,0,1.5-.13,2.72Z"/></g></g></svg>