<?xml version="1.0" encoding="utf-8"?>
<!-- Generator: Adobe Illustrator 23.0.0, SVG Export Plug-In . SVG Version: 6.00 Build 0)  -->
<svg version="1.1" id="Capa_1" xmlns="http://www.w3.org/2000/svg" xmlns:xlink="http://www.w3.org/1999/xlink" x="0px" y="0px"
	 viewBox="0 0 234.6 55.2" style="enable-background:new 0 0 234.6 55.2;" xml:space="preserve">
<style type="text/css">
	.st0{fill:#003F5B;}
	.st1{fill:#3397C5;}
	.st2{fill:#FFFFFF;}
	.st3{fill:#0F7CB3;}
</style>
<title>logo</title>
<path class="st0" d="M232.5,3.8c-1.6-2-3.9-3.4-6.5-3.7C225.5,0,225,0,224.5,0H10C4.8,0,0.4,4,0,9.2c0,0.5,0,0.9,0,1.3v34.7
	c0,5.3,4,9.7,9.3,10c0.3,0,0.5,0,0.9,0h214.4l0,0c5,0,9.2-3.6,9.9-8.5c0.1-0.7,0.1-1.4,0.1-2.1V10.1C234.7,7.8,233.9,5.6,232.5,3.8z
	"/>
<path class="st1" d="M47.2,47.5H14.9c-1.8,0-3.4-1-4.1-2.6c-0.3-0.7-0.4-1.5-0.3-2.3V10.8c0-2.4,1.9-4.3,4.3-4.3h31.8
	c0.8,0,1.6,0.1,2.3,0.3c1.6,0.7,2.7,2.3,2.7,4.1v32.4C51.5,45.6,49.6,47.5,47.2,47.5z"/>
<path class="st1" d="M47.2,48.5H14.9c-2.2,0-4.1-1.3-5-3.3c-0.3-0.9-0.5-1.8-0.4-2.7V10.8c0-2.9,2.4-5.3,5.3-5.3h31.8
	c0.9,0,1.8,0.1,2.7,0.4c2,0.9,3.3,2.8,3.3,5v32.4C52.6,46.2,50.2,48.5,47.2,48.5z M15,7.5h-0.2c-1.8,0-3.3,1.5-3.3,3.3v31.8
	c0,0.6,0,1.3,0.3,1.9c0.5,1.2,1.8,2,3.1,2h32.3c1.8,0,3.3-1.5,3.3-3.3V10.8c0-1.3-0.8-2.6-2-3.1c-0.6-0.2-1.2-0.3-1.9-0.3L15,7.5z"
	/>
<path class="st2" d="M44.5,23.9v2.7H50v6c-2.9,0.3-5.6,1.4-7.9,3.3l-4.2-4.2l3.9-3.9l-2-1.9l-10,9.9l2,1.9l3.9-3.9L40,38
	c-1.8,2.2-3,4.9-3.3,7.8h-6v-5.5H28v7.3h20c1.8,0,3.3-1.3,3.5-3.1V23.9H44.5z"/>
<path class="st3" d="M48,47.9H27.7v-7.8H31v5.5h5.5c0.3-2.8,1.4-5.4,3.1-7.6l-3.9-3.9L31.8,38l-2.3-2.3l10.4-10.3l2.3,2.3l-3.9,3.9
	l3.9,3.9c2.2-1.7,4.8-2.8,7.6-3.1v-5.5h-5.5v-3.3h7.5v20.9C51.5,46.5,49.9,47.9,48,47.9z M28.2,47.3H48c1.7,0,3.1-1.2,3.3-2.8V24.2
	h-6.5v2.2h5.5v6.4h-0.2c-2.8,0.3-5.5,1.4-7.8,3.2l-0.2,0.2l-4.6-4.6l3.9-3.9l-1.6-1.5l-9.6,9.6l1.6,1.6l3.9-3.9l4.6,4.5l-0.2,0.2
	c-1.8,2.2-2.9,4.9-3.2,7.7v0.2h-6.5v-5.5h-2.2V47.3z"/>
<path class="st2" d="M20.1,42.1c-3.4,0-5.7,2.1-5.7,5.3v0.2h11.5c0-0.1,0-0.1,0-0.2C25.9,44.2,23.6,42.1,20.1,42.1z"/>
<path class="st3" d="M26,47.8H14.2v-0.4c0-3.3,2.4-5.5,5.9-5.5s5.9,2.2,5.9,5.5V47.8z M14.5,47.4h11.1l0,0c0-3.1-2.2-5.2-5.6-5.2
	S14.6,44.4,14.5,47.4L14.5,47.4z"/>
<path class="st2" d="M25.3,21.2c-1.1,1-1.7,2.4-1.6,3.9s0.8,2.9,1.9,3.9c1,1.1,2.4,1.8,3.9,1.9s2.9-0.5,3.9-1.6
	c1-0.9,1.6-2.3,1.7-3.7c-0.1-1.6-0.8-3.1-1.9-4.1C30.7,19.1,27.6,19,25.3,21.2z"/>
<path class="st3" d="M29.7,31.1h-0.3c-1.5-0.1-3-0.9-4-2c-1.1-1-1.8-2.5-2-4c-0.1-1.5,0.6-3,1.7-4.1l0,0c2.3-2.3,5.6-2.2,8.1,0.3
	c1.2,1.1,1.9,2.6,2,4.2c0,1.4-0.6,2.8-1.7,3.8C32.6,30.4,31.2,31,29.7,31.1z M25.4,21.3c-1.1,1-1.6,2.4-1.6,3.8
	c0.1,1.4,0.8,2.8,1.8,3.8c1,1.1,2.3,1.7,3.8,1.9c2.9,0,5.2-2.3,5.4-5.1c-0.1-1.5-0.7-3-1.9-4C30.7,19.3,27.6,19.1,25.4,21.3
	L25.4,21.3z"/>
<path class="st2" d="M46.3,16.1c0,3.4,2.1,5.6,5.3,5.7V10.4C48.4,10.5,46.3,12.8,46.3,16.1z"/>
<path class="st3" d="M51.7,22h-0.2c-3.3,0-5.4-2.4-5.4-5.9s2.2-5.8,5.4-5.9h0.2V22z M51.4,10.6c-2.9,0.1-4.9,2.3-4.9,5.5
	s1.9,5.4,4.9,5.5V10.6z"/>
<path class="st1" d="M86,27c0,4.6-1.2,8.2-3.5,10.8c-2.3,2.5-5.6,3.8-9.8,3.8c-4.3,0-7.6-1.3-9.8-3.8c-2.3-2.5-3.4-6.1-3.4-10.8
	s1.2-8.3,3.5-10.8s5.6-3.8,9.9-3.8c4.2,0,7.5,1.3,9.8,3.8S86,22.4,86,27z M64.4,27c0,3.5,0.7,6.1,2.1,7.9c1.5,1.9,3.9,2.9,6.3,2.7
	c2.4,0.2,4.7-0.8,6.3-2.7c1.4-1.8,2.1-4.4,2.1-8c0-3.5-0.7-6.1-2.1-7.9c-1.5-1.9-3.8-2.9-6.2-2.7c-2.4-0.2-4.7,0.8-6.3,2.7
	C65.1,20.9,64.4,23.6,64.4,27z"/>
<path class="st1" d="M98.9,26.4h-4.3v14.9h-3.8V26.4h-2.9v-1.8l2.9-1.1v-1.2c-0.1-1.7,0.4-3.4,1.5-4.6c1.2-1.1,2.9-1.6,4.5-1.5
	c1.3,0,2.6,0.2,3.9,0.7l-1,2.9c-0.9-0.3-1.8-0.4-2.7-0.5c-0.7-0.1-1.4,0.2-1.9,0.8c-0.4,0.7-0.6,1.5-0.6,2.4v1.1h4.3L98.9,26.4z
	 M110.8,26.4h-4.3v14.9h-3.8V26.4h-2.9v-1.8l2.9-1.1v-1.2c-0.1-1.7,0.4-3.4,1.5-4.6c1.2-1.1,2.9-1.6,4.5-1.5c1.3,0,2.6,0.2,3.9,0.7
	l-1,2.9c-0.9-0.3-1.8-0.4-2.7-0.5c-0.7-0.1-1.4,0.2-1.9,0.8c-0.4,0.7-0.6,1.5-0.6,2.4v1.1h4.3L110.8,26.4z M113.6,18.9
	c0-0.6,0.2-1.1,0.6-1.5s1-0.6,1.6-0.5c0.6,0,1.1,0.2,1.5,0.5c0.4,0.4,0.6,1,0.6,1.5c0,0.6-0.2,1.1-0.6,1.5s-1,0.6-1.5,0.6
	c-0.6,0-1.2-0.2-1.6-0.6C113.8,20,113.6,19.4,113.6,18.9z M117.6,41.3h-3.8V23.5h3.8V41.3z"/>
<path class="st1" d="M129.3,41.6c-2.3,0.2-4.5-0.7-6.1-2.3c-1.4-1.6-2.1-3.8-2.1-6.7c0-3,0.7-5.3,2.2-6.9c1.7-1.7,4-2.6,6.3-2.4
	c1.7,0,3.5,0.3,5.1,1l-1.1,3c-1.2-0.5-2.6-0.9-3.9-0.9c-3.1,0-4.6,2-4.6,6.1c-0.1,1.6,0.3,3.1,1.1,4.5c0.8,1,2.1,1.6,3.4,1.5
	c1.7,0,3.3-0.4,4.8-1.3v3.3c-0.7,0.4-1.4,0.7-2.1,0.8C131.2,41.5,130.2,41.6,129.3,41.6z"/>
<path class="st1" d="M145.3,41.6c-2.4,0.1-4.7-0.7-6.5-2.4c-1.6-1.8-2.5-4.2-2.3-6.6c-0.1-2.5,0.6-4.9,2.2-6.8
	c1.5-1.7,3.7-2.6,5.9-2.5c2.1-0.1,4.1,0.7,5.5,2.1c1.4,1.6,2.1,3.7,2,5.9v2h-11.8c-0.1,1.5,0.4,2.9,1.4,4c1,1,2.3,1.5,3.7,1.4
	c1,0,2-0.1,2.9-0.3c1-0.2,2-0.6,2.9-1v3.1c-0.9,0.4-1.8,0.7-2.8,0.9C147.5,41.5,146.4,41.6,145.3,41.6z M144.6,26.1
	c-1.1,0-2.1,0.4-2.9,1.1c-0.8,0.9-1.2,2.1-1.3,3.3h8c0.1-1.2-0.3-2.4-1.1-3.3C146.7,26.4,145.7,26,144.6,26.1z"/>
<path class="st2" d="M160.9,41.3h-3.3V15.9h-9V13h21.2v2.9h-9L160.9,41.3z"/>
<path class="st2" d="M174,23.4c0.7,0,1.4,0.1,2.1,0.2l-0.4,2.5c-0.6-0.1-1.3-0.2-1.9-0.2c-1.4,0-2.8,0.6-3.6,1.7
	c-1,1.2-1.6,2.7-1.5,4.3v9.4H166V23.7h2.2l0.3,3.3h0.1c0.6-1.1,1.4-2,2.4-2.6C171.9,23.7,172.9,23.4,174,23.4z"/>
<path class="st2" d="M189.4,41.3l-0.5-2.5h-0.1c-0.7,0.9-1.6,1.7-2.6,2.2c-1,0.4-2.1,0.6-3.3,0.6c-1.5,0.1-2.9-0.4-4.1-1.3
	c-1-1-1.6-2.4-1.5-3.8c0-3.5,2.8-5.4,8.5-5.6l3-0.1v-1.1c0.1-1.1-0.2-2.1-0.9-3c-0.8-0.7-1.8-1.1-2.8-1c-1.7,0.1-3.5,0.5-5,1.3
	l-0.8-2c1.8-1,3.9-1.5,5.9-1.5c1.7-0.1,3.3,0.4,4.6,1.4c1.1,1.2,1.7,2.8,1.5,4.5v12L189.4,41.3z M183.4,39.4
	c1.4,0.1,2.8-0.4,3.9-1.4c1-1,1.5-2.4,1.4-3.8v-1.6l-2.7,0.1c-1.6,0-3.2,0.3-4.6,1c-0.9,0.6-1.5,1.6-1.4,2.7
	c-0.1,0.8,0.3,1.6,0.9,2.2C181.6,39.2,182.5,39.4,183.4,39.4z"/>
<path class="st2" d="M203,41.6c-2.2,0.1-4.4-0.7-5.9-2.3c-1.5-1.9-2.2-4.2-2.1-6.6c-0.2-2.5,0.6-4.9,2.1-6.8
	c1.6-1.7,3.8-2.5,6.1-2.4c0.9,0,1.7,0.1,2.5,0.3c0.7,0.1,1.4,0.3,2,0.6l-0.8,2.3c-0.6-0.2-1.2-0.4-1.9-0.6c-0.6-0.1-1.2-0.2-1.8-0.2
	c-3.6,0-5.3,2.3-5.3,6.8c-0.1,1.8,0.3,3.5,1.3,5c0.9,1.2,2.4,1.8,3.9,1.7c1.5,0,3.1-0.3,4.5-0.9v2.3C206.1,41.3,204.5,41.6,203,41.6
	z"/>
<path class="st2" d="M213.4,32.3c0.7-0.9,1.4-1.7,2.1-2.6l5.7-6h3.2l-7.1,7.5l7.6,10.1h-3.2l-6.2-8.3l-2,1.7v6.6h-2.6V16.4h2.6v13.2
	C213.5,30.2,213.5,31.1,213.4,32.3L213.4,32.3z"/>
</svg>
