<?xml version="1.0" encoding="utf-8"?>
<!-- Generator: Adobe Illustrator 23.0.0, SVG Export Plug-In . SVG Version: 6.00 Build 0)  -->
<svg version="1.1" id="Capa_1" xmlns="http://www.w3.org/2000/svg" xmlns:xlink="http://www.w3.org/1999/xlink" x="0px" y="0px"
	 viewBox="0 0 45 45" style="enable-background:new 0 0 45 45;" xml:space="preserve">
<style type="text/css">
	.st0{fill:#103159;enable-background:new    ;}
	.st1{fill:#FFFFFF;}
</style>
<title>in</title>
<circle class="st0" cx="22.5" cy="22.5" r="22.5"/>
<path id="LinkedIn" class="st1" d="M36,26.8v10h-5.8v-9.3c0-2.3-0.8-3.9-2.9-3.9c-1.3,0-2.6,0.8-3,2.1c-0.1,0.5-0.2,0.9-0.2,1.4v9.7
	h-5.8c0,0,0.1-15.8,0-17.4h5.8v2.5v0.1l0,0v-0.1c1.1-1.9,3.1-3,5.2-2.9C33.1,19,36,21.5,36,26.8z M12.3,11c-1.7,0-3,1.3-3,3
	c0,1.7,1.3,3,3,3l0,0c1.7,0,3-1.3,3-3S13.9,11,12.3,11L12.3,11z M9.3,36.8h5.8V19.4H9.3V36.8z"/>
</svg>
