<svg xmlns="http://www.w3.org/2000/svg" viewBox="0 0 45 45"><defs><style>.cls-1{fill:#0f7cb3;opacity:0.5;}.cls-2{fill:#fff;}</style></defs><title>tw</title><g id="Capa_2" data-name="Capa 2"><g id="Capa_6" data-name="Capa 6"><circle class="cls-1" cx="22.5" cy="22.5" r="22.5"/><path class="cls-2" d="M8.48,33.21a11.92,11.92,0,0,0,8.59-2.42,6,6,0,0,1-5.46-4.08,6.44,6.44,0,0,0,2.62-.13,5.91,5.91,0,0,1-3.37-2.07,5.8,5.8,0,0,1-1.29-3.74,6.13,6.13,0,0,0,2.63.71,5.88,5.88,0,0,1-2.43-3.57,5.81,5.81,0,0,1,.64-4.24A16.78,16.78,0,0,0,22.48,19.8c0-.39-.08-.73-.1-1.08a5.86,5.86,0,0,1,6.83-6,5.78,5.78,0,0,1,3.11,1.59.44.44,0,0,0,.46.12,12.13,12.13,0,0,0,3.15-1.2l.28-.15a4.65,4.65,0,0,1-.94,1.79c-.44.5-.94.94-1.44,1.43.53-.11,1.06-.2,1.58-.34s1-.34,1.59-.53a8.1,8.1,0,0,1-.67.88c-.66.67-1.34,1.31-2,1.95a.51.51,0,0,0-.19.42,17,17,0,0,1-5.35,12.84,15.31,15.31,0,0,1-8.14,4.08,17,17,0,0,1-9-.75,16,16,0,0,1-3-1.49Z"/></g></g></svg>