<svg xmlns="http://www.w3.org/2000/svg" viewBox="0 0 262.43 262.43"><defs><style>.cls-1{fill:#fff;}.cls-2{fill:#f67d34;}</style></defs><title>iconmodal1</title><g id="Capa_2" data-name="Capa 2"><g id="Capa_1-2" data-name="Capa 1"><circle class="cls-1" cx="131.22" cy="131.22" r="116.72"/><path class="cls-2" d="M131.22,262.43C58.86,262.43,0,203.57,0,131.22A131.36,131.36,0,0,1,131.22,0c72.35,0,131.21,58.86,131.21,131.22S203.57,262.43,131.22,262.43Zm0-233.43A102.22,102.22,0,1,0,233.43,131.22,102.33,102.33,0,0,0,131.22,29Z"/><path class="cls-2" d="M156,131.34l30.93-31.66a10.73,10.73,0,0,0,0-14.9L176,73.61a10.13,10.13,0,0,0-14.55,0l-30.92,31.66L99.6,73.61a10.13,10.13,0,0,0-14.55,0L74.14,84.78a10.71,10.71,0,0,0,0,14.9l30.92,31.66L74.14,163a10.71,10.71,0,0,0,0,14.9l10.91,11.17a10.13,10.13,0,0,0,14.55,0l30.93-31.65,30.92,31.65a10.13,10.13,0,0,0,14.55,0l10.92-11.17a10.73,10.73,0,0,0,0-14.9Z"/></g></g></svg>