<svg xmlns="http://www.w3.org/2000/svg" viewBox="0 0 45 45"><defs><style>.cls-1{fill:#0f7cb3;opacity:0.5;}.cls-2{fill:#fff;}</style></defs><title>in</title><g id="Capa_2" data-name="Capa 2"><g id="Capa_6" data-name="Capa 6"><circle class="cls-1" cx="22.5" cy="22.5" r="22.5"/><path id="LinkedIn" class="cls-2" d="M36,26.82v10H30.21V27.49c0-2.34-.83-3.94-2.93-3.94a3.17,3.17,0,0,0-3,2.12,4,4,0,0,0-.19,1.41V36.8H18.33s.08-15.77,0-17.41h5.79v2.47l0,.06h0v-.06A5.74,5.74,0,0,1,29.34,19C33.14,19,36,21.47,36,26.82ZM12.28,11a3,3,0,1,0-.08,6h0a3,3,0,1,0,0-6ZM9.34,36.8h5.79V19.39H9.34Z"/></g></g></svg>