<?xml version="1.0" encoding="utf-8"?>
<!-- Generator: Adobe Illustrator 23.0.0, SVG Export Plug-In . SVG Version: 6.00 Build 0)  -->
<svg version="1.1" id="Capa_1" xmlns="http://www.w3.org/2000/svg" xmlns:xlink="http://www.w3.org/1999/xlink" x="0px" y="0px"
	 viewBox="0 0 45 45" style="enable-background:new 0 0 45 45;" xml:space="preserve">
<style type="text/css">
	.st0{fill:#FFFFFF;}
	.st1{fill:#ACD636;}
</style>
<title>iconobotmod</title>
<g>
	<g id="Capa_1-2">
		<circle class="st0" cx="22.5" cy="22.5" r="22.5"/>
		<path class="st1" d="M39.8,13.4l-3.1-3.1c-0.9-0.8-2.2-0.8-3.1,0L18.4,25.6l-7.8-7.8c-0.8-0.8-2.2-0.9-3,0c0,0,0,0,0,0l-3.1,3.1
			c-0.8,0.8-0.8,2.2,0,3.1l12.2,12.2l0,0l0.1,0.1c0.8,0.8,2.2,0.9,3,0c0,0,0,0,0,0l19.9-19.9C40.6,15.6,40.6,14.2,39.8,13.4z"/>
	</g>
</g>
</svg>
