<?xml version="1.0" encoding="utf-8"?>
<!-- Generator: Adobe Illustrator 23.0.0, SVG Export Plug-In . SVG Version: 6.00 Build 0)  -->
<svg version="1.1" id="Capa_1" xmlns="http://www.w3.org/2000/svg" xmlns:xlink="http://www.w3.org/1999/xlink" x="0px" y="0px"
	 viewBox="0 0 45 45" style="enable-background:new 0 0 45 45;" xml:space="preserve">
<style type="text/css">
	.st0{fill:#FFFFFF;}
	.st1{fill:#F67D34;}
</style>
<title>iconobotmod</title>
<circle class="st0" cx="22.5" cy="22.5" r="22.5"/>
<path class="st1" d="M27.7,22.8l7-7.2c0.9-0.9,0.9-2.5,0-3.4l-2.5-2.5c-0.9-0.9-2.4-0.9-3.3,0l-7,7.2l-7-7.2c-0.9-0.9-2.4-0.9-3.3,0
	l-2.5,2.5c-0.9,0.9-0.9,2.5,0,3.4l7,7.2l-7,7.2c-0.9,0.9-0.9,2.5,0,3.4l2.5,2.5c0.9,0.9,2.4,0.9,3.3,0l7-7.2l7,7.2
	c0.9,0.9,2.4,0.9,3.3,0l2.5-2.5c0.9-0.9,0.9-2.5,0-3.4L27.7,22.8z"/>
</svg>
