<svg xmlns="http://www.w3.org/2000/svg" viewBox="0 0 285.93 296.09"><defs><style>.cls-1{fill:#f67d34;}</style></defs><title>iconmodal_1</title><g id="Capa_2" data-name="Capa 2"><g id="Capa_1-2" data-name="Capa 1"><path class="cls-1" d="M158.4,295.22a137.08,137.08,0,0,0,55.24-17.87c36.18-21.22,59.36-52.75,68.88-93.71a126.55,126.55,0,0,0,3.16-25.24c0-.89.12-1.69.2-2.39,0-.14,0-.28.05-.42V150.9c0-.15,0-.3-.05-.44-.08-.69-.17-1.47-.2-2.35a140.56,140.56,0,0,0-7.32-40.44,142,142,0,0,0-34.29-55.36,16.22,16.22,0,0,0-14.27-4.65A16,16,0,0,0,218,56.5c-3.08,6.3-1.58,13.8,3.91,19.57,26.69,28,36.53,61.26,29.26,98.82a108.33,108.33,0,0,1-49.8,72.16A110.51,110.51,0,0,1,32.94,143a109.41,109.41,0,0,1,22-56.62c2.3-3.05,4.8-5.78,7.23-8.42,1.16-1.26,2.31-2.51,3.44-3.8A16.17,16.17,0,0,0,42.82,51.35a52.35,52.35,0,0,0-4.66,4.73l-.38.41A141.86,141.86,0,0,0,.62,140.57,137.69,137.69,0,0,0,8,200c13,36.44,37.16,63.81,71.83,81.35a137.29,137.29,0,0,0,47.82,13.87q3.09.33,6.18.61l2.52.25h13.25l2.62-.25C154.25,295.64,156.33,295.44,158.4,295.22Z"/><path class="cls-1" d="M159.13,153q0-49.87,0-99.75V16.35c0-.3,0-.6,0-.9A16.32,16.32,0,0,0,143.5,0h-.35a16.38,16.38,0,0,0-11.58,4.63,16.28,16.28,0,0,0-4.84,11.76q0,24.45,0,48.9V84.65q0,10.38,0,20.75c0,15.73,0,32,0,48A15.94,15.94,0,0,0,133,166a16.19,16.19,0,0,0,26.12-13Z"/></g></g></svg>