<svg xmlns="http://www.w3.org/2000/svg" xmlns:xlink="http://www.w3.org/1999/xlink" viewBox="0 0 1366 768"><defs><style>.cls-1{fill:none;}.cls-2{fill:#fff;}.cls-3{clip-path:url(#clip-path);}.cls-4{fill:#fbbe99;}</style><clipPath id="clip-path"><rect class="cls-1" width="1366" height="768" rx="24"/></clipPath></defs><title>back</title><g id="Capa_2" data-name="Capa 2"><rect class="cls-2" width="1366" height="768" rx="24"/></g><g id="Capa_1" data-name="Capa 1"><g class="cls-3"><circle class="cls-4" cx="1240.5" cy="650.5" r="173.5"/><path class="cls-2" d="M1349.39,615.28c-.19-.5-.34-1-.5-1.55a14,14,0,0,0-1.58-3.83,37.3,37.3,0,0,0-6.16-7.68c-5-4.38-10.3-8.59-15.41-12.65l-2.74-2.19a1.76,1.76,0,0,1-.8-1.7c.06-3.08,0-6.16,0-9.24v-3.33a21.62,21.62,0,0,0-21.57-21.83c-3.33,0-6.66,0-10,0-3.76,0-7.52,0-11.27,0a3.82,3.82,0,0,1-2.12-.76l-3.41-2.83c-5.64-4.71-11.47-9.58-18.3-12.94a70.77,70.77,0,0,0-8.41-3.25c-1.26-.42-2.52-.84-3.77-1.3l-8.16-.09-.29,0c-12.88,2.74-22.59,10.82-32,18.64l-2.1,1.74a3.76,3.76,0,0,1-2.11.76c-4.64.06-9.27,0-13.91,0h-6.71a21.79,21.79,0,0,0-22.22,22.27v3.35c0,2.93,0,5.86,0,8.79a1.76,1.76,0,0,1-.8,1.7c-2.81,2.24-5.59,4.52-8.38,6.79-3,2.43-6,4.86-9,7.25-4.73,3.75-7.57,8.11-8.69,13.32l-.43.56V732.41l.07.45q.23.67.42,1.35a30.45,30.45,0,0,0,1.09,3.13A21.6,21.6,0,0,0,1144.33,750c.53.16,1.05.34,1.57.51l.77.26,184.57.07.22-.07,1.35-.42a30.45,30.45,0,0,0,3.13-1.09,21.55,21.55,0,0,0,12.69-14.11c.15-.52.33-1,.51-1.55l.34-1V615.77Zm-122-64.22c8.81-5.76,14.5-5.77,23.3,0Zm98.23,183.32H1152.22c-5.22,0-7.07-1.86-7.07-7.12V701.43q0-40.18,0-80.36c0-3.16,1-5.23,3.21-6.9s4.44-3.49,6.74-5.39l.84-.7v5.67c0,8.16,0,16.33-.05,24.5a5.78,5.78,0,0,1-.86,2.12,6.82,6.82,0,0,1-.85,1.1c-.2.23-.4.46-.58.7-3,3.76-2.57,7.48,1.13,10.46l13.29,10.7q21,16.93,42.12,33.78a99.85,99.85,0,0,0,12.54,8.36c10.88,6.23,22.24,6.07,33.75-.46,6.32-3.58,11.93-8.18,17.37-12.63,1.09-.9,2.19-1.79,3.29-2.68q16.32-13.17,32.75-26.22l13.42-10.71c2.1-1.68,3.24-3.5,3.37-5.39a7.17,7.17,0,0,0-2.34-5.39c-1.54-1.62-2.12-3.3-2.07-6,.1-6.84.08-13.68.07-20.52l0-7.42,1.26,1c2.9,2.34,5.63,4.55,8.11,7,.73.72,1.26,2.52,1.31,4.47.14,5.47.11,11,.09,16.44l0,90.35C1333,732.51,1331.12,734.37,1325.65,734.38Zm-20-90.1a2.73,2.73,0,0,1-.75,1.71l-2.58,2.09c-14.75,11.95-30,24.31-45.16,36.25a85.56,85.56,0,0,1-12.55,7.81c-3.45,1.85-7.38,1.82-11.67-.07-6-2.66-11.23-6.83-16.24-10.87q-21.71-17.48-43.45-34.9a2,2,0,0,1-.93-1.88q0-24.15,0-48.31V574.63c0-5,1.88-6.8,6.93-6.8h119.79c4.64,0,6.62,2,6.63,6.67Q1305.76,609.39,1305.69,644.28Z"/><path class="cls-2" d="M1279.53,583.79c-1.27-1.28-3.11-1.87-5.79-1.87h-70c-4.34,0-7,2.6-7,6.93v1.93c0,5.32,2.38,7.7,7.73,7.7h69.94l.78,0a6.39,6.39,0,0,0,6.14-6.36c0-.59,0-1.18,0-1.78v-.82C1281.37,586.9,1280.77,585,1279.53,583.79Z"/><path class="cls-2" d="M1204.15,625.72h70.21c4.35,0,7-2.59,7-6.92v-1.71c0-2.93-.56-4.81-1.84-6.08s-3.15-1.85-6.08-1.85h-69.18c-.53,0-1,0-1.58,0a6.39,6.39,0,0,0-5.92,6.31c0,.68,0,1.36,0,2v.78C1196.77,623.22,1199.26,625.72,1204.15,625.72Z"/><path class="cls-2" d="M1279.53,638.28c-1.27-1.28-3.11-1.87-5.79-1.88h-70c-4.34,0-7,2.6-7,6.93v1.93c0,5.32,2.38,7.69,7.73,7.69h69.94c.26,0,.52,0,.78,0a6.4,6.4,0,0,0,6.14-6.36c0-.6,0-1.19,0-1.78V644C1281.37,641.39,1280.77,639.52,1279.53,638.28Z"/></g></g></svg>