<svg xmlns="http://www.w3.org/2000/svg" viewBox="0 0 121 121"><defs><style>.cls-1{fill:#fff;}.cls-2{fill:#f67d34;}</style></defs><title>iconboton</title><g id="Capa_2" data-name="Capa 2"><g id="Capa_1-2" data-name="Capa 1"><circle class="cls-1" cx="60.5" cy="60.5" r="60.5"/><path class="cls-2" d="M97.06,29.85a3.17,3.17,0,0,1,1.2.8,2.89,2.89,0,0,1,.47,3.28c-1.24,2.74-2.48,5.49-3.73,8.22q-2.64,5.76-5.27,11.51T84.53,65L79.34,76.3q-2.62,5.76-5.27,11.51L68.88,99.13c-.22.46-.44.93-.7,1.37a3,3,0,0,1-5,.16l-3-4.34-2.57-3.66-2-2.82-3-4.26-2.46-3.5c-.23-.32-.47-.63-.73-1l-1.09,1.06c-.57.54-1.13,1.09-1.69,1.64l-3.77,3.6c-1.26,1.2-2.51,2.41-3.79,3.6-.68.63-1.4,1.24-2.12,1.83a2.64,2.64,0,0,1-1.31.55A1.6,1.6,0,0,1,33.84,92a7.41,7.41,0,0,1-.08-2c.09-1.59.17-3.19.26-4.78,0-.54.06-1.08.08-1.63,0-1.1.08-2.21.14-3.31.07-1.47.15-2.94.23-4.42s.16-3.15.25-4.73c0-.65.06-1.29.1-1.94a.25.25,0,0,0-.17-.29L28,65.53l-5.65-2.85L17.13,60a2.9,2.9,0,0,1-.52-5,3.46,3.46,0,0,1,1-.46c1-.33,1.92-.64,2.89-1l3.42-1.09,3.3-1.06,3.33-1.06,3.24-1,3.49-1.11,3.28-1.05,3.31-1,3.3-1.06,3.31-1,3.24-1,3.51-1.13,3.28-1,3.31-1.06,3.28-1,3.31-1.06,3.44-1.1,3.31-1,3.33-1.06,3.21-1,3.44-1.09,3.36-1.07c1.09-.35,2.18-.71,3.28-1.05.61-.19,1.22-.37,1.84-.54a4,4,0,0,1,.52-.08Zm-6.58,7.62-1.26.38-3.28,1L82.45,40l-3.24,1-3.24,1-3.44,1.11-3.28,1.05-3.26,1-3.44,1.1-3.26,1-3.37,1.09-3.33,1.06-3.26,1L46,51.7l-3.35,1.07-3.47,1.11L36,54.9,32.67,56,29.28,57,26.44,58l-.38.12.26.12,5.73,2.86c2.28,1.14,4.55,2.29,6.83,3.42a.5.5,0,0,0,.36,0q.85-.36,1.68-.75l3.51-1.62,3.37-1.55L51.31,59l3.35-1.55,3.59-1.65,3.23-1.49L65,52.67l3.37-1.55,3.51-1.61L75.19,48l3.66-1.69,2.38-1.11.2-.09a.61.61,0,0,1-.16.21l-3.34,3.15L74.18,52l-3.84,3.64L66.6,59.15l-3.81,3.61L59,66.36l-3.9,3.69-3.36,3.23-.47.38c.14.17.27.31.37.46l2.45,3.48,2.5,3.56,2.48,3.54,2.49,3.54,3.27,4.68.14.17c1.07-2.29,2.13-4.56,3.17-6.83Q70.72,80.65,73.28,75t5.23-11.4q2.61-5.72,5.23-11.41L89,40.79c.27-.58.53-1.16.79-1.75S90.24,38,90.48,37.47Z"/></g></g></svg>