<svg xmlns="http://www.w3.org/2000/svg" viewBox="0 0 77 77"><defs><style>.cls-1{fill:#f89e67;}</style></defs><title>iconnews</title><g id="Capa_2" data-name="Capa 2"><g id="Capa_1-2" data-name="Capa 1"><path class="cls-1" d="M77,29.72c-.06-.18-.12-.36-.17-.54a5.34,5.34,0,0,0-.55-1.34,13.4,13.4,0,0,0-2.15-2.67c-1.75-1.53-3.59-3-5.38-4.42l-1-.76a.61.61,0,0,1-.28-.59c0-1.08,0-2.15,0-3.23V15A7.54,7.54,0,0,0,60,7.4H56.49c-1.31,0-2.62,0-3.93,0a1.27,1.27,0,0,1-.74-.27l-1.18-1a32.68,32.68,0,0,0-6.39-4.51A22.75,22.75,0,0,0,41.32.48C40.88.34,40.44.19,40,0L37.16,0h-.1c-4.49,1-7.88,3.77-11.15,6.5l-.74.61a1.27,1.27,0,0,1-.73.26c-1.62,0-3.24,0-4.85,0H17.25A7.6,7.6,0,0,0,9.5,15.16v1.17c0,1,0,2.05,0,3.07a.59.59,0,0,1-.28.59c-1,.78-1.95,1.57-2.92,2.37L3.18,24.89a7.89,7.89,0,0,0-3,4.64l-.15.2V70.56l0,.16c.05.16.1.31.14.47.12.37.23.74.38,1.09a7.54,7.54,0,0,0,4.92,4.43q.27.08.54.18l.27.09,64.36,0,.08,0,.47-.14c.37-.12.74-.23,1.09-.38a7.47,7.47,0,0,0,4.42-4.92l.18-.54.12-.35V29.89ZM34.44,7.32c3.07-2,5.05-2,8.12,0ZM68.69,71.25H8.22c-1.82,0-2.47-.65-2.47-2.48v-9q0-14,0-28a2.7,2.7,0,0,1,1.12-2.41c.79-.59,1.54-1.21,2.35-1.88l.29-.24v2c0,2.85,0,5.7,0,8.55a2,2,0,0,1-.3.74,1.83,1.83,0,0,1-.29.38l-.21.24a2.36,2.36,0,0,0,.4,3.65l4.63,3.73Q21,52.38,28.4,58.25a34.84,34.84,0,0,0,4.37,2.92A11.22,11.22,0,0,0,44.54,61,44.75,44.75,0,0,0,50.6,56.6l1.14-.93q5.7-4.59,11.42-9.14l4.68-3.74A2.73,2.73,0,0,0,69,40.91,2.5,2.5,0,0,0,68.2,39a2.68,2.68,0,0,1-.72-2.09c0-2.39,0-4.77,0-7.16V27.19l.44.36c1,.82,2,1.59,2.83,2.44a2.48,2.48,0,0,1,.45,1.55c0,1.91,0,3.85,0,5.73V68.78C71.25,70.6,70.6,71.24,68.69,71.25Zm-7-31.42a1,1,0,0,1-.26.6l-.9.73c-5.14,4.16-10.46,8.47-15.75,12.64a30.29,30.29,0,0,1-4.37,2.72,4.52,4.52,0,0,1-4.07,0,26.35,26.35,0,0,1-5.67-3.79q-7.56-6.1-15.15-12.17a.72.72,0,0,1-.32-.66q0-8.43,0-16.85V15.55c0-1.74.66-2.38,2.42-2.38H59.44c1.62,0,2.31.7,2.31,2.33C61.75,23.61,61.76,31.72,61.73,39.83Z"/><path class="cls-1" d="M52.61,18.74a2.7,2.7,0,0,0-2-.66H26.19a2.24,2.24,0,0,0-2.44,2.41v.67c0,1.86.83,2.69,2.7,2.69H51.11a2.22,2.22,0,0,0,2.14-2.21v-.91A2.69,2.69,0,0,0,52.61,18.74Z"/><path class="cls-1" d="M26.33,33.36H50.81A2.25,2.25,0,0,0,53.25,31v-.6a2.83,2.83,0,0,0-.64-2.12,2.79,2.79,0,0,0-2.12-.65H26.37a5,5,0,0,0-.55,0,2.22,2.22,0,0,0-2.07,2.2v1A2.29,2.29,0,0,0,26.33,33.36Z"/><path class="cls-1" d="M52.61,37.74a2.7,2.7,0,0,0-2-.66H26.18a2.23,2.23,0,0,0-2.43,2.41v.67c0,1.86.83,2.69,2.7,2.69H51.11a2.22,2.22,0,0,0,2.14-2.21v-.91A2.69,2.69,0,0,0,52.61,37.74Z"/></g></g></svg>