<svg xmlns="http://www.w3.org/2000/svg" viewBox="0 0 121 121"><defs><style>.cls-1{fill:#fbbe99;}.cls-2{fill:#fff;}</style></defs><title>newsback</title><g id="Capa_2" data-name="Capa 2"><g id="Capa_1-2" data-name="Capa 1"><circle class="cls-1" cx="60.5" cy="60.5" r="60.5"/><path class="cls-2" d="M98.47,48.22c-.06-.18-.12-.36-.17-.54a5.34,5.34,0,0,0-.55-1.34,13.4,13.4,0,0,0-2.15-2.67c-1.75-1.53-3.59-3-5.38-4.42l-1-.76A.61.61,0,0,1,89,37.9c0-1.08,0-2.15,0-3.23V33.51a7.54,7.54,0,0,0-7.52-7.61H78c-1.31,0-2.62,0-3.93,0a1.27,1.27,0,0,1-.74-.27l-1.18-1a32.68,32.68,0,0,0-6.39-4.51A22.75,22.75,0,0,0,62.82,19c-.44-.14-.88-.29-1.31-.45l-2.85,0h-.1c-4.49,1-7.88,3.77-11.15,6.5l-.74.61a1.27,1.27,0,0,1-.73.26c-1.62,0-3.24,0-4.85,0H38.75A7.6,7.6,0,0,0,31,33.66v1.17c0,1,0,2.05,0,3.07a.59.59,0,0,1-.28.59c-1,.78-1.95,1.57-2.92,2.37l-3.13,2.53a7.89,7.89,0,0,0-3,4.64l-.15.2V89.06l0,.16c0,.16.1.31.14.47.12.37.23.74.38,1.09A7.54,7.54,0,0,0,27,95.21q.27.08.54.18l.27.09,64.36,0,.08,0,.47-.14c.37-.12.74-.23,1.09-.38A7.47,7.47,0,0,0,98.2,90l.18-.54.12-.35V48.39ZM55.94,25.82c3.07-2,5.05-2,8.12,0ZM90.19,89.75H29.72c-1.82,0-2.47-.65-2.47-2.48v-9q0-14,0-28a2.7,2.7,0,0,1,1.12-2.41c.79-.59,1.54-1.21,2.35-1.88l.29-.24v2c0,2.85,0,5.7,0,8.55a2,2,0,0,1-.3.74,1.83,1.83,0,0,1-.29.38l-.21.24a2.36,2.36,0,0,0,.4,3.65L35.21,65q7.34,5.91,14.69,11.78a34.84,34.84,0,0,0,4.37,2.92A11.22,11.22,0,0,0,66,79.51,44.75,44.75,0,0,0,72.1,75.1l1.14-.93q5.7-4.59,11.42-9.14l4.68-3.74a2.73,2.73,0,0,0,1.18-1.88,2.5,2.5,0,0,0-.82-1.88A2.68,2.68,0,0,1,89,55.44c0-2.39,0-4.77,0-7.16V45.69l.44.36c1,.82,2,1.59,2.83,2.44A2.48,2.48,0,0,1,92.72,50c0,1.91,0,3.85,0,5.73V87.28C92.75,89.1,92.1,89.74,90.19,89.75Zm-7-31.42a1,1,0,0,1-.26.6l-.9.73c-5.14,4.16-10.46,8.47-15.75,12.64A30.29,30.29,0,0,1,62,75a4.52,4.52,0,0,1-4.07,0,26.35,26.35,0,0,1-5.67-3.79Q44.65,65.11,37.06,59a.72.72,0,0,1-.32-.66q0-8.43,0-16.85V34.05c0-1.74.66-2.38,2.42-2.38H80.94c1.62,0,2.31.7,2.31,2.33C83.25,42.11,83.26,50.22,83.23,58.33Z"/><path class="cls-2" d="M74.11,37.24a2.7,2.7,0,0,0-2-.66H47.69A2.24,2.24,0,0,0,45.25,39v.67c0,1.86.83,2.69,2.7,2.69H72.61a2.22,2.22,0,0,0,2.14-2.21v-.91A2.69,2.69,0,0,0,74.11,37.24Z"/><path class="cls-2" d="M47.83,51.86H72.31a2.25,2.25,0,0,0,2.44-2.41v-.6a2.83,2.83,0,0,0-.64-2.12A2.79,2.79,0,0,0,72,46.08H47.87a5,5,0,0,0-.55,0,2.22,2.22,0,0,0-2.07,2.2v1A2.29,2.29,0,0,0,47.83,51.86Z"/><path class="cls-2" d="M74.11,56.24a2.7,2.7,0,0,0-2-.66H47.68A2.23,2.23,0,0,0,45.25,58v.67c0,1.86.83,2.69,2.7,2.69H72.61a2.22,2.22,0,0,0,2.14-2.21v-.91A2.69,2.69,0,0,0,74.11,56.24Z"/></g></g></svg>