<svg xmlns="http://www.w3.org/2000/svg" viewBox="0 0 172 172"><defs><style>.cls-1{fill:#fff;}.cls-2{fill:#c1e068;}</style></defs><title>iconbsm</title><g id="Capa_2" data-name="Capa 2"><g id="Capa_1-2" data-name="Capa 1"><circle class="cls-1" cx="86" cy="86" r="86"/><path class="cls-2" d="M104.45,84.09l-4.22-4.23L85.45,65.08a3,3,0,0,0-4.23,0L77,69.31a3,3,0,0,0,0,4.22l7.07,7.07H31a3.1,3.1,0,0,0-3.1,3.1v5.74a3.1,3.1,0,0,0,3.1,3.1H83.33L77,98.87a3,3,0,0,0,0,4.22l4.22,4.23a3,3,0,0,0,4.23,0l14.78-14.79h0l4.22-4.22A3,3,0,0,0,104.45,84.09Z"/><path class="cls-2" d="M59.63,140H126.8a11.69,11.69,0,0,0,11.67-11.67V43.54A11.68,11.68,0,0,0,126.8,31.87H59.63A11.68,11.68,0,0,0,48,43.54v11.4H58.9V43.54a.73.73,0,0,1,.73-.73H126.8a.73.73,0,0,1,.73.73v84.79a.73.73,0,0,1-.73.73H59.63a.73.73,0,0,1-.73-.73V116.94H48v11.39A11.68,11.68,0,0,0,59.63,140Z"/></g></g></svg>