<svg xmlns="http://www.w3.org/2000/svg" viewBox="0 0 172 172"><defs><style>.cls-1{fill:#fff;}.cls-2{fill:#c1e068;}</style></defs><title>iconbsm1</title><g id="Capa_2" data-name="Capa 2"><g id="Capa_1-2" data-name="Capa 1"><circle class="cls-1" cx="86" cy="86" r="86"/><path class="cls-2" d="M103.41,150.52l-21.21.11c-3.26-1.67-4.54-4.33-4.3-8,.17-2.5,0-5,0-7.8l-3.2,0L46.18,135c-5.75,0-7.68-1.87-7.71-7.59-.16-30.51-.26-61-.52-91.54,0-3.65,1.17-6.07,4.47-7.48l77.8-.39c3.31,1.41,4.54,3.89,4.52,7.5-.08,12.6.07,25.21.13,37.81l0,3.4c1.14-1.07,1.8-1.66,2.43-2.29,4.15-4.13,6.68-4.16,10.8-.08L153.4,89.49c4.37,4.34,4.4,6.92.11,11.26q-22.87,23.1-45.76,46.18C106.43,148.25,104.86,149.33,103.41,150.52ZM50.18,123.1c9.51,0,18.74,0,28-.21a4.56,4.56,0,0,0,2.67-1.51c10.29-10.33,20.58-20.68,30.75-31.12a6.31,6.31,0,0,0,1.64-4c0-14.58-.07-29.17-.15-43.75,0-.79-.1-1.58-.16-2.35l-63.13.31Zm82.53-37.4q-21.17,21.39-42.12,42.6a2.64,2.64,0,0,0-.83,1.58c-.07,2.87,0,5.74,0,8.83,2.18,0,4.08-.17,6,0a7,7,0,0,0,6.14-2.52c12.79-13.08,25.71-26,38.57-39,.63-.63,1.24-1.3,1.81-1.9Z"/></g></g></svg>