<svg xmlns="http://www.w3.org/2000/svg" viewBox="0 0 88.25 88.25"><defs><style>.cls-1{fill:#fff;}.cls-2{fill:#3397c5;}</style></defs><title>in</title><g id="Capa_2" data-name="Capa 2"><g id="Capa_1-2" data-name="Capa 1"><circle class="cls-1" cx="44.13" cy="44.13" r="44.13"/><path id="LinkedIn" class="cls-2" d="M70.6,52.59V72.17H59.25V53.9c0-4.58-1.64-7.72-5.75-7.72a6.21,6.21,0,0,0-5.82,4.16,7.71,7.71,0,0,0-.38,2.76V72.17H36S36.1,41.23,36,38H47.3v4.84l-.07.11h.07v-.11a11.28,11.28,0,0,1,10.23-5.64C65,37.23,70.6,42.11,70.6,52.59Zm-46.53-31c-3.88,0-6.42,2.55-6.42,5.9s2.47,5.9,6.27,5.9H24c4,0,6.42-2.62,6.42-5.9S28,21.57,24.07,21.57Zm-5.75,50.6H29.67V38H18.32Z"/></g></g></svg>