<svg xmlns="http://www.w3.org/2000/svg" viewBox="0 0 88.25 88.25"><defs><style>.cls-1{fill:#fff;}.cls-2{fill:#3397c5;}</style></defs><title>tw</title><g id="Capa_2" data-name="Capa 2"><g id="Capa_1-2" data-name="Capa 1"><circle class="cls-1" cx="44.13" cy="44.13" r="44.13"/><path class="cls-2" d="M16.62,65.13a23.42,23.42,0,0,0,16.87-4.75,11.76,11.76,0,0,1-10.72-8,12.68,12.68,0,0,0,5.13-.25,11.62,11.62,0,0,1-6.6-4.07,11.26,11.26,0,0,1-2.52-7.33,11.89,11.89,0,0,0,5.14,1.39,11.5,11.5,0,0,1-4.76-7,11.35,11.35,0,0,1,1.25-8.31,32.91,32.91,0,0,0,23.68,12c-.07-.75-.16-1.43-.21-2.12a11.49,11.49,0,0,1,13.4-11.85A11.25,11.25,0,0,1,63.38,28a.84.84,0,0,0,.91.23,23.65,23.65,0,0,0,6.17-2.34c.15-.09.31-.17.56-.29a9,9,0,0,1-1.86,3.51c-.85,1-1.84,1.84-2.81,2.8,1-.22,2.07-.39,3.09-.67s2-.67,3.12-1a17,17,0,0,1-1.31,1.73c-1.3,1.3-2.64,2.57-4,3.82a1,1,0,0,0-.37.83A33.35,33.35,0,0,1,56.4,61.72a30,30,0,0,1-16,8,33.4,33.4,0,0,1-17.63-1.48,32,32,0,0,1-5.93-2.91Z"/></g></g></svg>